#N canvas 694 41 692 722 10;
#X obj 94 34 loadbang;
#X obj 271 140 r foo;
#X obj 517 141 r test;
#X obj 272 172 print~;
#X obj 592 282 print;
#X obj 293 473 dac~ 1 2;
#X obj 482 201 sel 1;
#X obj 439 290 *~;
#X obj 447 129 1;
#X obj 471 252 line~;
#X msg 481 224 \$1 10;
#X obj 398 213 osc~ 440;
#X floatatom 109 223 5 0 0 0 - - -;
#X obj 106 249 expr $f1 \; if ($f1<=10&&$f1>=5 \, $f1 \, 0);
#X floatatom 106 305 5 0 0 0 - - -;
#X floatatom 271 300 5 0 0 0 - - -;
#X obj 269 329 sel 0;
#X obj 290 428 *~;
#X obj 333 332 osc~ 440;
#X obj 126 405 phasor~;
#X obj 91 107 print Halli hallo;
#X obj 75 466 == 1;
#X obj 256 383 line~;
#X msg 266 355 \$0 10;
#X connect 0 0 20 0;
#X connect 1 0 3 0;
#X connect 2 0 6 0;
#X connect 6 0 10 0;
#X connect 10 0 9 0;
#X connect 11 0 7 0;
#X connect 12 0 13 0;
#X connect 13 0 14 0;
#X connect 13 1 15 0;
#X connect 15 0 16 0;
#X connect 16 0 23 0;
#X connect 17 0 5 0;
#X connect 17 0 5 1;
#X connect 18 0 17 1;
#X connect 22 0 17 0;
#X connect 23 0 22 0;
