#N canvas 220 57 692 722 10;
#X obj 94 34 loadbang;
#X obj 91 107 print Halli hallo;
#X obj 78 229 == 1;
#X obj 331 521 dac~ 1 2;
#X obj 327 378 *~;
#X floatatom 133 166 5 0 0 0 - - -;
#X floatatom 126 330 5 0 0 0 - - -;
#X obj 126 274 expr $f1 \; if ($f1==1 \, $f1 \, 0);
#X obj 346 316 osc~ 440;
#X obj 273 331 line~;
#X msg 262 304 \$1 500;
#X obj 327 418 *~ 200.8;
#X obj 136 202 r phi_ext;
#X obj 626 546 dac~ 1 2;
#X obj 622 403 *~;
#X floatatom 428 191 5 0 0 0 - - -;
#X floatatom 421 355 5 0 0 0 - - -;
#X obj 421 299 expr $f1 \; if ($f1==1 \, $f1 \, 0);
#X obj 568 356 line~;
#X msg 557 329 \$1 500;
#X obj 622 443 *~ 200.8;
#X obj 431 227 r phi;
#X obj 641 341 osc~ 600;
#X connect 0 0 1 0;
#X connect 4 0 11 0;
#X connect 5 0 7 0;
#X connect 7 0 6 0;
#X connect 7 1 10 0;
#X connect 8 0 4 1;
#X connect 9 0 4 0;
#X connect 10 0 9 0;
#X connect 11 0 3 0;
#X connect 11 0 3 1;
#X connect 12 0 7 0;
#X connect 14 0 20 0;
#X connect 15 0 17 0;
#X connect 17 0 16 0;
#X connect 17 1 19 0;
#X connect 18 0 14 0;
#X connect 19 0 18 0;
#X connect 20 0 13 0;
#X connect 20 0 13 1;
#X connect 21 0 17 0;
#X connect 22 0 14 1;
