#N canvas 694 41 692 722 10;
#X obj 149 209 r firefly;
#X obj 393 164 loadbang;
#X obj 390 237 print hallo;
#X obj 324 347 r foo;
#X obj 158 260 print;
#X obj 570 348 r test;
#X obj 325 379 print~;
#X obj 645 489 print;
#X obj 336 651 dac~ 1 2;
#X obj 535 408 sel 1;
#X obj 492 497 *~;
#X obj 500 336 1;
#X obj 524 459 line~;
#X msg 534 431 \$1 10;
#X obj 451 420 osc~ 440;
#X floatatom 162 430 5 0 0 0 - - -;
#X obj 159 456 expr $f1 \; if ($f1<=10&&$f1>=5 \, $f1 \, 0);
#X floatatom 159 512 5 0 0 0 - - -;
#X floatatom 324 507 5 0 0 0 - - -;
#X obj 322 536 sel 0;
#X obj 323 570 bng 15 250 50 0 empty empty empty 17 7 0 10 -262144
-1 -1;
#X obj 333 606 *~;
#X obj 376 510 osc~ 440;
#X connect 0 0 4 0;
#X connect 1 0 2 0;
#X connect 3 0 6 0;
#X connect 5 0 9 0;
#X connect 9 0 13 0;
#X connect 13 0 12 0;
#X connect 14 0 10 0;
#X connect 15 0 16 0;
#X connect 16 0 17 0;
#X connect 16 1 18 0;
#X connect 18 0 19 0;
#X connect 19 0 20 0;
#X connect 20 0 21 0;
#X connect 21 0 8 0;
#X connect 22 0 21 1;
