#N canvas 1322 309 692 722 10;
#X obj 149 209 r firefly;
#X obj 393 164 loadbang;
#X obj 390 237 print hallo;
#X obj 324 347 r foo;
#X obj 158 260 print;
#X obj 521 357 r test;
#X obj 325 379 print~;
#X obj 596 498 print;
#X obj 431 575 dac~ 1 2;
#X obj 486 417 sel 1;
#X obj 443 506 *~;
#X obj 451 345 1;
#X obj 475 468 line~;
#X msg 485 440 \$1 10;
#X obj 402 429 osc~ 440;
#X connect 0 0 4 0;
#X connect 1 0 2 0;
#X connect 3 0 6 0;
#X connect 5 0 9 0;
#X connect 9 0 13 0;
#X connect 10 0 8 0;
#X connect 13 0 12 0;
#X connect 14 0 10 0;
