#N canvas 568 371 692 722 10;
#X obj 94 34 loadbang;
#X obj 271 140 r foo;
#X obj 133 439 r test;
#X obj 272 172 print~;
#X obj 293 473 dac~ 1 2;
#X floatatom 106 208 5 0 0 0 - - -;
#X obj 106 249 expr $f1 \; if ($f1<=10&&$f1>=5 \, $f1 \, 0);
#X floatatom 106 305 5 0 0 0 - - -;
#X floatatom 271 300 5 0 0 0 - - -;
#X obj 269 329 sel 0;
#X obj 290 428 *~;
#X obj 333 332 osc~ 440;
#X obj 91 107 print Halli hallo;
#X obj 75 466 == 1;
#X obj 256 383 line~;
#X msg 266 355 \$0 10;
#X obj 311 638 dac~ 1 2;
#X obj 308 593 *~;
#X floatatom 114 403 5 0 0 0 - - -;
#X floatatom 123 567 5 0 0 0 - - -;
#X obj 123 511 expr $f1 \; if ($f1==1 \, $f1 \, 0);
#X obj 343 553 osc~ 440;
#X obj 270 568 line~;
#X msg 259 541 \$1 100;
#X connect 0 0 12 0;
#X connect 1 0 3 0;
#X connect 2 0 20 0;
#X connect 5 0 6 0;
#X connect 6 0 7 0;
#X connect 6 1 8 0;
#X connect 8 0 9 0;
#X connect 9 0 15 0;
#X connect 10 0 4 0;
#X connect 10 0 4 1;
#X connect 11 0 10 1;
#X connect 14 0 10 0;
#X connect 15 0 14 0;
#X connect 17 0 16 0;
#X connect 17 0 16 1;
#X connect 18 0 20 0;
#X connect 20 0 19 0;
#X connect 20 1 23 0;
#X connect 21 0 17 1;
#X connect 22 0 17 0;
#X connect 23 0 22 0;
